<?xml version="1.0" standalone="no"?>
<!DOCTYPE svg PUBLIC "-//W3C//DTD SVG 20010904//EN"
 "http://www.w3.org/TR/2001/REC-SVG-20010904/DTD/svg10.dtd">
<svg version="1.0" xmlns="http://www.w3.org/2000/svg"
 width="682.000000pt" height="700.000000pt" viewBox="0 0 682.000000 700.000000"
 preserveAspectRatio="xMidYMid meet">

<g transform="translate(0.000000,700.000000) scale(0.100000,-0.100000)"
fill="#000000" stroke="none">
<path d="M1565 5844 c-195 -31 -364 -151 -445 -319 -156 -318 -39 -706 255
-850 100 -49 173 -65 297 -66 188 0 316 49 434 166 124 124 179 267 177 465 0
95 -5 129 -27 196 -61 190 -206 332 -396 389 -54 16 -237 28 -295 19z m259
-238 c106 -52 167 -152 187 -306 19 -159 -21 -301 -110 -390 -73 -73 -136 -94
-254 -88 -128 7 -212 60 -266 169 -41 82 -54 154 -49 273 7 154 54 253 151
319 95 64 237 74 341 23z"/>
<path d="M2510 5231 l0 -601 130 0 130 0 0 208 0 209 118 6 c240 13 372 81
441 227 23 49 26 67 26 165 0 126 -15 172 -81 245 -50 56 -95 83 -180 111 -63
20 -93 23 -326 27 l-258 4 0 -601z m510 368 c56 -32 80 -77 80 -153 0 -80 -27
-135 -82 -166 -34 -19 -61 -24 -145 -28 l-103 -5 0 193 0 193 103 -5 c85 -4
111 -9 147 -29z"/>
<path d="M3570 5230 l0 -600 355 0 355 0 0 105 0 105 -230 0 -231 0 3 153 3
152 193 3 192 2 0 100 0 100 -195 0 -195 0 0 130 0 130 220 0 220 0 0 110 0
110 -345 0 -345 0 0 -600z"/>
<path d="M4520 5230 l0 -600 115 0 115 0 0 418 0 417 36 -60 c20 -33 149 -221
287 -417 l250 -358 118 0 119 0 0 600 0 600 -115 0 -115 0 0 -407 0 -408 -24
42 c-31 53 -47 77 -309 456 l-221 317 -128 0 -128 0 0 -600z"/>
<path d="M1120 3660 l0 -602 263 5 c232 4 271 7 337 26 120 36 195 77 271 148
114 108 171 252 172 433 2 295 -140 483 -423 562 -65 18 -112 21 -347 25
l-273 5 0 -602z m560 366 c154 -57 217 -174 208 -386 -6 -129 -31 -201 -91
-262 -76 -78 -164 -107 -324 -108 l-103 0 0 391 0 392 133 -6 c86 -3 147 -10
177 -21z"/>
<path d="M2719 4233 c-6 -16 -30 -80 -54 -143 -23 -63 -90 -239 -148 -390 -58
-151 -137 -357 -175 -458 l-70 -183 131 3 130 3 24 65 c13 36 30 84 39 108
l16 42 238 0 238 0 39 -107 40 -108 141 -3 142 -3 -21 53 c-12 29 -91 231
-176 448 -85 217 -182 464 -215 548 l-59 152 -125 0 -124 0 -11 -27z m151
-335 c17 -56 101 -299 137 -395 4 -10 -32 -13 -160 -13 l-166 0 39 108 c22 59
59 167 82 239 24 73 44 133 45 133 0 0 11 -33 23 -72z"/>
<path d="M3550 4155 l0 -105 165 0 165 0 0 -495 0 -495 130 0 130 0 0 495 0
495 165 0 165 0 0 105 0 105 -460 0 -460 0 0 -105z"/>
<path d="M4810 3669 c-124 -324 -226 -594 -228 -600 -2 -5 50 -9 126 -9 l130
0 31 85 c17 47 33 96 37 110 l6 25 242 0 241 0 38 -110 39 -110 140 0 c129 0
140 1 134 18 -3 9 -109 279 -234 599 l-227 583 -125 0 -125 0 -225 -591z m448
-16 l59 -163 -164 0 c-145 0 -164 2 -159 15 28 74 118 335 136 395 l23 75 23
-80 c13 -44 50 -153 82 -242z"/>
<path d="M1120 1960 l0 -780 135 0 135 0 0 355 0 355 385 0 385 0 0 -355 0
-355 135 0 135 0 0 780 0 780 -135 0 -135 0 0 -315 0 -315 -385 0 -385 0 0
315 0 315 -135 0 -135 0 0 -780z"/>
<path d="M2872 2193 c4 -520 6 -552 26 -624 59 -217 182 -338 402 -396 91 -23
320 -24 410 0 168 45 289 139 355 279 65 137 67 154 72 751 l5 537 -131 0
-131 0 0 -528 c0 -581 -1 -595 -61 -692 -63 -102 -168 -145 -333 -138 -208 10
-309 105 -335 318 -7 49 -11 286 -11 562 l0 478 -136 0 -136 0 4 -547z"/>
<path d="M4610 1960 l0 -782 328 4 c296 4 334 7 405 26 159 44 263 125 308
240 18 46 23 78 23 162 1 95 -2 111 -28 167 -45 99 -157 188 -263 211 l-38 9
66 30 c153 70 224 209 198 388 -12 83 -45 150 -102 202 -52 48 -78 62 -167 94
-62 22 -81 23 -397 27 l-333 3 0 -781z m623 541 c26 -13 60 -40 75 -59 23 -30
28 -47 31 -113 8 -177 -80 -239 -336 -239 l-123 0 0 221 0 221 153 -4 c134 -4
158 -7 200 -27z m0 -634 c119 -38 169 -105 169 -230 0 -84 -12 -120 -55 -165
-55 -57 -120 -74 -304 -80 l-163 -5 0 253 0 253 153 -6 c92 -3 171 -11 200
-20z"/>
</g>
</svg>
